G04*
G04 #@! TF.GenerationSoftware,Altium Limited,Altium Designer,21.4.1 (30)*
G04*
G04 Layer_Color=32768*
%FSLAX44Y44*%
%MOMM*%
G71*
G04*
G04 #@! TF.SameCoordinates,DE04AE30-6A1C-4D90-925E-84108EEAD676*
G04*
G04*
G04 #@! TF.FilePolarity,Positive*
G04*
G01*
G75*
%ADD14C,0.1250*%
D14*
X203000Y173790D02*
Y194110D01*
X192840Y183950D02*
X213160D01*
X192840Y295710D02*
X213160D01*
X192840Y72190D02*
Y295710D01*
Y72190D02*
X213160D01*
Y295710D01*
X1113240Y590160D02*
X1336760D01*
Y569840D02*
Y590160D01*
X1113240Y569840D02*
X1336760D01*
X1113240D02*
Y590160D01*
X1225000Y569840D02*
Y590160D01*
X1214840Y580000D02*
X1235160D01*
X1113240Y812660D02*
X1336760D01*
Y792340D02*
Y812660D01*
X1113240Y792340D02*
X1336760D01*
X1113240D02*
Y812660D01*
X1225000Y792340D02*
Y812660D01*
X1214840Y802500D02*
X1235160D01*
X260740Y812660D02*
X484260D01*
Y792340D02*
Y812660D01*
X260740Y792340D02*
X484260D01*
X260740D02*
Y812660D01*
X372500Y792340D02*
Y812660D01*
X362340Y802500D02*
X382660D01*
X260740Y590160D02*
X484260D01*
Y569840D02*
Y590160D01*
X260740Y569840D02*
X484260D01*
X260740D02*
Y590160D01*
X372500Y569840D02*
Y590160D01*
X362340Y580000D02*
X382660D01*
M02*
