G04*
G04 #@! TF.GenerationSoftware,Altium Limited,Altium Designer,21.4.1 (30)*
G04*
G04 Layer_Color=16711935*
%FSLAX44Y44*%
%MOMM*%
G71*
G04*
G04 #@! TF.SameCoordinates,DE04AE30-6A1C-4D90-925E-84108EEAD676*
G04*
G04*
G04 #@! TF.FilePolarity,Positive*
G04*
G01*
G75*
%ADD11C,0.2000*%
%ADD14C,0.1250*%
%ADD15C,0.1270*%
D11*
X1808500Y727000D02*
G03*
X1808500Y727000I-1000J0D01*
G01*
D14*
X192840Y295710D02*
X213160D01*
X192840Y72190D02*
Y295710D01*
Y72190D02*
X213160D01*
Y295710D01*
X1113240Y590160D02*
X1336760D01*
Y569840D02*
Y590160D01*
X1113240Y569840D02*
X1336760D01*
X1113240D02*
Y590160D01*
Y812660D02*
X1336760D01*
Y792340D02*
Y812660D01*
X1113240Y792340D02*
X1336760D01*
X1113240D02*
Y812660D01*
X260740D02*
X484260D01*
Y792340D02*
Y812660D01*
X260740Y792340D02*
X484260D01*
X260740D02*
Y812660D01*
Y590160D02*
X484260D01*
Y569840D02*
Y590160D01*
X260740Y569840D02*
X484260D01*
X260740D02*
Y590160D01*
D15*
X1680500Y754750D02*
X1795000D01*
X1680500Y635250D02*
Y754750D01*
Y635250D02*
X1795000D01*
Y754750D01*
M02*
