M48
;Layer_Color=9474304
;FILE_FORMAT=2:5
INCH,LZ
;TYPE=PLATED
T1F00S00C0.01575
T2F00S00C0.02953
T3F00S00C0.03150
T4F00S00C0.03200
T5F00S00C0.04000
T6F00S00C0.07283
T7F00S00C0.11810
;TYPE=NON_PLATED
T8F00S00C0.11811
%
T01
X0335Y005
X03325Y008
X034Y00775
X02875Y014
X04575Y013
X04925Y01225
X045Y002
X037Y0025
X05325Y002
X053Y001
X05275Y014
X0525Y01425
X0512697Y0144291
X0515059Y0147047
X0517618Y015
X0520079Y0152854
X051063Y0141043
X05Y0125
X0585Y013
X0625Y01475
X06625Y01425
X066Y002
X0697436Y0260236
X0699311Y0264567
X0689862Y0273228
X0693898Y028189
X05825Y02475
T02
X0079921Y0032421
Y0042421
Y0052421
Y0062421
Y0072421
Y0082421
Y0092421
Y0102421
Y0112421
X0502283Y0228346
X0512284
X0522284
X0492283
X0482283
X0472284
X0462284
X0452283
X0442283
X0186653Y0228346
X0176654
X0166654
X0156653
X0146653
X0136653
X0126654
X0116654
X0106653
Y0315945
X0116654
X0126654
X0136653
X0146653
X0156653
X0166654
X0176654
X0186653
X0442283
X0452283
X0462284
X0472284
X0482283
X0492283
X0502283
X0512284
X0522284
T03
X035Y0063504
Y0095
T04
X00275Y004
Y005
Y006
Y007
Y008
Y009
Y01
Y011
X00575
Y01
Y009
Y008
Y007
Y006
Y005
Y004
X03675
Y005
Y006
Y007
Y008
Y009
Y01
Y011
X03975
Y01
Y009
Y008
Y007
Y006
Y005
Y004
X04125
Y005
Y006
Y007
Y008
Y009
Y01
Y011
X04425
Y01
Y009
Y008
Y007
Y006
Y005
Y004
X04575
Y005
Y006
Y007
Y008
Y009
Y01
Y011
X04875
Y01
Y009
Y008
Y007
Y006
Y005
Y004
X05025
Y005
Y006
Y007
Y008
Y009
Y01
Y011
X05325
Y01
Y009
Y008
Y007
Y006
Y005
Y004
X05475
Y005
Y006
Y007
Y008
Y009
Y01
Y011
X05775
Y01
Y009
Y008
Y007
Y006
Y005
Y004
X05925
Y005
Y006
Y007
Y008
Y009
Y01
Y011
X06225
Y01
Y009
Y008
Y007
Y006
Y005
Y004
X0675Y01875
Y01975
Y02075
Y02175
X0645
Y02075
Y01975
Y01875
X0625Y02775
Y02875
X059
Y02775
X0555
Y02875
X0505
Y02775
X047
Y02875
X0435
Y02775
X0385
Y02875
X035
Y02775
X0315
Y02875
X0265
Y02775
X023
Y02875
X0195
Y02775
X0145
Y02875
X011
Y02775
X0075
Y02875
X0025
Y02775
Y0365
Y0375
X006
Y0365
X0095
Y0375
X013
Y0365
X0165
Y0375
X02
Y0365
X0235
Y0375
X027
Y0365
X035
Y0375
X0385
Y0365
X0435
Y0375
X047
Y0365
X0505
Y0375
X0555
Y0365
X059
Y0375
X0625
Y0365
T05
X06475Y0025
Y0035
Y0045
Y0055
Y0065
Y0075
Y0085
Y0095
Y0105
Y0115
Y0125
Y0135
Y0145
T06
X010935Y0065158
Y0083661
Y0102165
X0175787Y0102165
Y0083661
Y0065158
X0240453
Y0083661
Y0102165
X0305807
Y0083661
Y0065158
X0505Y0158996
Y01775
Y0196004
X0555
Y01775
Y0158996
X059
Y01775
Y0196004
X0625
Y01775
Y0158996
X047
Y01775
Y0196004
X0435
Y01775
Y0158996
X0385
Y01775
Y0196004
X035
Y01775
Y0158996
X0315
Y01775
Y0196004
X0265
Y01775
Y0158996
X023
Y01775
Y0196004
X0195
Y01775
Y0158996
X0145
Y01775
Y0196004
X011
Y01775
Y0158996
X0075
Y01775
Y0196004
X0025
Y01775
Y0158996
T07
X069685Y0015748
T08
X0015748Y0015748
Y0314961
X069685Y0374016
M30
